<mxfile host="app.diagrams.net" modified="2024-06-11T12:36:56.665Z" agent="Mozilla/5.0 (Windows NT 10.0; Win64; x64) AppleWebKit/537.36 (KHTML, like Gecko) Chrome/124.0.0.0 Safari/537.36" etag="kRo-_9FU9wKBCv61lDUC" version="24.4.10" type="device">
  <diagram name="Page-1" id="X3G8oeR5eW8C9lnvKZcA">
    <mxGraphModel dx="2032" dy="1114" grid="0" gridSize="10" guides="1" tooltips="1" connect="1" arrows="1" fold="1" page="0" pageScale="1" pageWidth="827" pageHeight="1169" background="#ffffff" math="0" shadow="0">
      <root>
        <mxCell id="0" />
        <mxCell id="1" parent="0" />
        <mxCell id="ODUt0zolkxilLu2w94tL-20" value="" style="group" parent="1" vertex="1" connectable="0">
          <mxGeometry x="504" y="555" width="673" height="573" as="geometry" />
        </mxCell>
        <mxCell id="ODUt0zolkxilLu2w94tL-2" value="&lt;span style=&quot;font-size: 24px;&quot;&gt;VLAN - C&lt;/span&gt;" style="swimlane;whiteSpace=wrap;html=1;" parent="ODUt0zolkxilLu2w94tL-20" vertex="1">
          <mxGeometry x="-155" y="124" width="554" height="449" as="geometry" />
        </mxCell>
        <mxCell id="ODUt0zolkxilLu2w94tL-29" style="edgeStyle=orthogonalEdgeStyle;rounded=0;orthogonalLoop=1;jettySize=auto;html=1;exitX=0.5;exitY=0.985;exitDx=0;exitDy=0;exitPerimeter=0;endArrow=none;endFill=0;" parent="ODUt0zolkxilLu2w94tL-2" source="Qe2UMun1RYptdiuMl3PA-6" edge="1">
          <mxGeometry relative="1" as="geometry">
            <mxPoint x="229.30769230769238" y="281.9230769230769" as="targetPoint" />
          </mxGeometry>
        </mxCell>
        <mxCell id="Qe2UMun1RYptdiuMl3PA-6" value="" style="shape=mxgraph.cisco.misc.access_point;sketch=0;html=1;pointerEvents=1;dashed=0;fillColor=#036897;strokeColor=#ffffff;strokeWidth=2;verticalLabelPosition=bottom;verticalAlign=top;align=center;outlineConnect=0;" parent="ODUt0zolkxilLu2w94tL-2" vertex="1">
          <mxGeometry x="172.5" y="23" width="113" height="55" as="geometry" />
        </mxCell>
        <mxCell id="xsW_Jq4UyFvReOR4-po4-2" value="&lt;font style=&quot;font-size: 18px;&quot;&gt;IDS/IPS&lt;/font&gt;" style="sketch=0;points=[[0.015,0.015,0],[0.985,0.015,0],[0.985,0.985,0],[0.015,0.985,0],[0.25,0,0],[0.5,0,0],[0.75,0,0],[1,0.25,0],[1,0.5,0],[1,0.75,0],[0.75,1,0],[0.5,1,0],[0.25,1,0],[0,0.75,0],[0,0.5,0],[0,0.25,0]];verticalLabelPosition=bottom;html=1;verticalAlign=top;aspect=fixed;align=center;pointerEvents=1;shape=mxgraph.cisco19.rect;prIcon=ips_ids;fillColor=#FAFAFA;strokeColor=#005073;" parent="ODUt0zolkxilLu2w94tL-2" vertex="1">
          <mxGeometry x="53.999999999999986" y="25.309999999999942" width="64.48" height="50.38" as="geometry" />
        </mxCell>
        <mxCell id="ODUt0zolkxilLu2w94tL-7" style="edgeStyle=orthogonalEdgeStyle;rounded=0;orthogonalLoop=1;jettySize=auto;html=1;exitX=1;exitY=0.5;exitDx=0;exitDy=0;exitPerimeter=0;entryX=0;entryY=0.5;entryDx=0;entryDy=0;entryPerimeter=0;endArrow=none;endFill=0;" parent="ODUt0zolkxilLu2w94tL-2" source="xsW_Jq4UyFvReOR4-po4-2" target="Qe2UMun1RYptdiuMl3PA-6" edge="1">
          <mxGeometry relative="1" as="geometry" />
        </mxCell>
        <mxCell id="Qe2UMun1RYptdiuMl3PA-9" value="&lt;font style=&quot;font-size: 24px;&quot;&gt;Internal PFsense-1&lt;/font&gt;&lt;div&gt;&lt;div&gt;&lt;span style=&quot;color: rgba(0, 0, 0, 0); font-family: monospace; font-size: 0px; text-align: start; text-wrap: nowrap; background-color: initial;&quot;&gt;%3CmxGraphModel%3E%3Croot%3E%3CmxCell%20id%3D%220%22%2F%3E%3CmxCell%20id%3D%221%22%20parent%3D%220%22%2F%3E%3CmxCell%20id%3D%222%22%20value%3D%22%22%20style%3D%22edgeStyle%3DorthogonalEdgeStyle%3Brounded%3D0%3BorthogonalLoop%3D1%3BjettySize%3Dauto%3Bhtml%3D1%3BendArrow%3Dnone%3BendFill%3D0%3Bdashed%3D1%3BdashPattern%3D1%201%3BstrokeWidth%3D2%3B%22%20edge%3D%221%22%20parent%3D%221%22%3E%3CmxGeometry%20relative%3D%221%22%20as%3D%22geometry%22%3E%3CmxPoint%20x%3D%22481%22%20y%3D%22554%22%20as%3D%22sourcePoint%22%2F%3E%3CmxPoint%20x%3D%22583%22%20y%3D%22511%22%20as%3D%22targetPoint%22%2F%3E%3C%2FmxGeometry%3E%3C%2FmxCell%3E%3C%2Froot%3E%3C%2FmxGraphModel%3E&lt;/span&gt;&lt;/div&gt;&lt;/div&gt;&lt;div&gt;&lt;div&gt;&lt;font size=&quot;3&quot;&gt;192.168.1.1&lt;/font&gt;&lt;/div&gt;&lt;/div&gt;&lt;div&gt;&lt;font size=&quot;3&quot;&gt;&lt;br&gt;&lt;/font&gt;&lt;/div&gt;" style="text;html=1;align=center;verticalAlign=middle;whiteSpace=wrap;rounded=0;" parent="ODUt0zolkxilLu2w94tL-2" vertex="1">
          <mxGeometry x="331" y="45" width="123" height="87" as="geometry" />
        </mxCell>
        <mxCell id="ODUt0zolkxilLu2w94tL-9" value="&lt;div style=&quot;text-wrap: wrap;&quot;&gt;&lt;div&gt;&lt;font size=&quot;3&quot;&gt;192.168.1.0/29&lt;/font&gt;&lt;/div&gt;&lt;/div&gt;" style="text;html=1;align=center;verticalAlign=middle;resizable=0;points=[];autosize=1;strokeColor=none;fillColor=none;" parent="ODUt0zolkxilLu2w94tL-2" vertex="1">
          <mxGeometry x="331" y="-3" width="125" height="31" as="geometry" />
        </mxCell>
        <mxCell id="-SE5PjGbtScMyr2BjyUV-7" value="" style="group" vertex="1" connectable="0" parent="ODUt0zolkxilLu2w94tL-2">
          <mxGeometry x="422.0899999999999" y="313.72" width="84" height="131.28" as="geometry" />
        </mxCell>
        <mxCell id="-SE5PjGbtScMyr2BjyUV-8" value="&lt;span style=&quot;font-size: 18px;&quot;&gt;Database&lt;/span&gt;&lt;br&gt;&lt;div style=&quot;font-size: 18px;&quot;&gt;&lt;font style=&quot;font-size: 18px;&quot;&gt;192.168.1.6&lt;/font&gt;&lt;/div&gt;" style="shape=image;html=1;verticalAlign=top;verticalLabelPosition=bottom;labelBackgroundColor=#ffffff;imageAspect=0;aspect=fixed;image=https://cdn1.iconfinder.com/data/icons/computer-hardware-hand-drawn-vol-1/52/server__database__data__storage__computer__webserver__electronic-128.png" vertex="1" parent="-SE5PjGbtScMyr2BjyUV-7">
          <mxGeometry x="27.67058823529411" y="-13.83455024463681" width="83.99548362815206" height="83.99548362815206" as="geometry" />
        </mxCell>
        <mxCell id="0qZd9vac-2IoLGJSH9iU-5" value="&lt;span style=&quot;font-size: 24px;&quot;&gt;SSH-server&lt;/span&gt;&lt;br&gt;&lt;div&gt;&lt;font size=&quot;3&quot;&gt;192.168.1.2&lt;/font&gt;&lt;/div&gt;" style="shape=image;html=1;verticalAlign=top;verticalLabelPosition=bottom;labelBackgroundColor=#ffffff;imageAspect=0;aspect=fixed;image=https://cdn1.iconfinder.com/data/icons/computer-hardware-hand-drawn-vol-1/52/server__database__data__storage__computer__webserver__electronic-128.png;imageBackground=default;imageBorder=none;" parent="ODUt0zolkxilLu2w94tL-2" vertex="1">
          <mxGeometry x="57.94" y="301" width="85" height="85" as="geometry" />
        </mxCell>
        <mxCell id="0qZd9vac-2IoLGJSH9iU-26" value="" style="group" parent="ODUt0zolkxilLu2w94tL-2" vertex="1" connectable="0">
          <mxGeometry x="298.06" y="314" width="84" height="131.28" as="geometry" />
        </mxCell>
        <mxCell id="0qZd9vac-2IoLGJSH9iU-20" value="&lt;font style=&quot;font-size: 18px;&quot;&gt;SMTP-server&lt;/font&gt;&lt;div style=&quot;font-size: 18px;&quot;&gt;&lt;font style=&quot;font-size: 18px;&quot;&gt;192.168.1.5&lt;/font&gt;&lt;/div&gt;" style="shape=image;html=1;verticalAlign=top;verticalLabelPosition=bottom;labelBackgroundColor=#ffffff;imageAspect=0;aspect=fixed;image=https://cdn1.iconfinder.com/data/icons/computer-hardware-hand-drawn-vol-1/52/server__database__data__storage__computer__webserver__electronic-128.png" parent="0qZd9vac-2IoLGJSH9iU-26" vertex="1">
          <mxGeometry x="27.67058823529411" y="-13.83455024463681" width="83.99548362815206" height="83.99548362815206" as="geometry" />
        </mxCell>
        <mxCell id="HM1A6S523gLYVuHz3L2S-1" value="&lt;span style=&quot;font-size: 24px;&quot;&gt;Webserver&lt;/span&gt;&lt;br&gt;&lt;div&gt;&lt;font size=&quot;3&quot;&gt;192.168.1.4&lt;/font&gt;&lt;/div&gt;" style="shape=image;html=1;verticalAlign=top;verticalLabelPosition=bottom;labelBackgroundColor=#ffffff;imageAspect=0;aspect=fixed;image=https://cdn1.iconfinder.com/data/icons/computer-hardware-hand-drawn-vol-1/52/server__database__data__storage__computer__webserver__electronic-128.png" parent="ODUt0zolkxilLu2w94tL-2" vertex="1">
          <mxGeometry x="191.06" y="300" width="85" height="85" as="geometry" />
        </mxCell>
        <mxCell id="xsW_Jq4UyFvReOR4-po4-4" value="" style="rounded=0;whiteSpace=wrap;html=1;" parent="ODUt0zolkxilLu2w94tL-2" vertex="1">
          <mxGeometry x="12" y="286" width="529" height="4" as="geometry" />
        </mxCell>
        <mxCell id="miMdK3jUTvKNIo4NDDWD-1" value="&lt;font style=&quot;font-size: 18px;&quot;&gt;192.168.2.x&lt;/font&gt;" style="html=1;strokeWidth=1;shadow=0;dashed=0;shape=mxgraph.ios7.misc.vpn;fillColor=#007AFF;strokeColor=none;buttonText=;strokeColor2=#222222;fontColor=#222222;fontSize=14;verticalLabelPosition=bottom;verticalAlign=top;align=center;sketch=0;" parent="ODUt0zolkxilLu2w94tL-20" vertex="1">
          <mxGeometry x="130.120227920228" y="-69" width="59.82905982905983" height="60" as="geometry" />
        </mxCell>
        <mxCell id="ODUt0zolkxilLu2w94tL-21" value="" style="group" parent="1" vertex="1" connectable="0">
          <mxGeometry x="520" y="153" width="1124" height="324" as="geometry" />
        </mxCell>
        <mxCell id="0qZd9vac-2IoLGJSH9iU-17" value="&lt;font style=&quot;font-size: 24px;&quot;&gt;SEC-LAB&lt;/font&gt;" style="text;html=1;align=center;verticalAlign=middle;whiteSpace=wrap;rounded=0;" parent="ODUt0zolkxilLu2w94tL-21" vertex="1">
          <mxGeometry y="23" width="131.46891464699684" height="30" as="geometry" />
        </mxCell>
        <mxCell id="ODUt0zolkxilLu2w94tL-15" style="edgeStyle=orthogonalEdgeStyle;rounded=0;orthogonalLoop=1;jettySize=auto;html=1;exitX=0.5;exitY=1;exitDx=0;exitDy=0;endArrow=none;endFill=0;" parent="ODUt0zolkxilLu2w94tL-21" source="xsW_Jq4UyFvReOR4-po4-7" target="nM8cQ9uz4SVfHFd4fCtj-2" edge="1">
          <mxGeometry relative="1" as="geometry" />
        </mxCell>
        <mxCell id="xsW_Jq4UyFvReOR4-po4-7" value="" style="image;aspect=fixed;perimeter=ellipsePerimeter;html=1;align=center;shadow=0;dashed=0;spacingTop=3;image=img/lib/active_directory/internet_cloud.svg;" parent="ODUt0zolkxilLu2w94tL-21" vertex="1">
          <mxGeometry x="7.3906849315068595" y="48" width="104.76" height="66" as="geometry" />
        </mxCell>
        <mxCell id="ODUt0zolkxilLu2w94tL-1" value="&lt;font style=&quot;font-size: 24px;&quot;&gt;VLAN - A&lt;/font&gt;" style="swimlane;whiteSpace=wrap;html=1;" parent="ODUt0zolkxilLu2w94tL-21" vertex="1">
          <mxGeometry x="251.09" width="447.91" height="300" as="geometry" />
        </mxCell>
        <mxCell id="ODUt0zolkxilLu2w94tL-8" value="&lt;div style=&quot;text-wrap: wrap;&quot;&gt;&lt;font style=&quot;font-size: 18px;&quot;&gt;172.16.2.0/29&lt;/font&gt;&lt;/div&gt;" style="text;html=1;align=center;verticalAlign=middle;resizable=0;points=[];autosize=1;strokeColor=none;fillColor=none;" parent="ODUt0zolkxilLu2w94tL-1" vertex="1">
          <mxGeometry x="299.91474183350897" y="-4" width="128" height="34" as="geometry" />
        </mxCell>
        <mxCell id="EZaL7fnBAmSdOQj7aJ7m-1" value="" style="shape=image;html=1;verticalAlign=top;verticalLabelPosition=bottom;labelBackgroundColor=#ffffff;imageAspect=0;aspect=fixed;image=https://cdn1.iconfinder.com/data/icons/computer-hardware-hand-drawn-vol-1/52/server__database__data__storage__computer__webserver__electronic-128.png" parent="ODUt0zolkxilLu2w94tL-1" vertex="1">
          <mxGeometry x="49.74770284510009" y="208" width="85" height="85" as="geometry" />
        </mxCell>
        <mxCell id="EZaL7fnBAmSdOQj7aJ7m-2" value="&lt;font style=&quot;font-size: 24px;&quot;&gt;Monitoring-Wazuh&lt;/font&gt;&lt;div&gt;&lt;font size=&quot;3&quot;&gt;172.16.2.4&lt;/font&gt;&lt;/div&gt;" style="text;html=1;align=center;verticalAlign=middle;whiteSpace=wrap;rounded=0;" parent="ODUt0zolkxilLu2w94tL-1" vertex="1">
          <mxGeometry x="154.90744994731295" y="240" width="71.06427818756586" height="30" as="geometry" />
        </mxCell>
        <mxCell id="ODUt0zolkxilLu2w94tL-40" value="" style="image;points=[];aspect=fixed;html=1;align=center;shadow=0;dashed=0;image=img/lib/allied_telesis/computer_and_terminals/Personal_Computer_with_Server.svg;" parent="ODUt0zolkxilLu2w94tL-1" vertex="1">
          <mxGeometry x="49.7449947312961" y="39.599999999999966" width="98.4" height="98.4" as="geometry" />
        </mxCell>
        <mxCell id="ODUt0zolkxilLu2w94tL-42" value="&lt;div&gt;&lt;font style=&quot;font-size: 24px;&quot;&gt;Managment machine&lt;/font&gt;&lt;/div&gt;" style="text;html=1;align=center;verticalAlign=middle;whiteSpace=wrap;rounded=0;" parent="ODUt0zolkxilLu2w94tL-1" vertex="1">
          <mxGeometry x="186.99380400421495" y="42" width="119.62486828240253" height="82" as="geometry" />
        </mxCell>
        <mxCell id="ODUt0zolkxilLu2w94tL-44" value="&lt;span style=&quot;color: rgb(0, 0, 0); font-family: Helvetica; font-size: medium; font-style: normal; font-variant-ligatures: normal; font-variant-caps: normal; font-weight: 400; letter-spacing: normal; orphans: 2; text-align: center; text-indent: 0px; text-transform: none; widows: 2; word-spacing: 0px; -webkit-text-stroke-width: 0px; white-space: normal; background-color: rgb(255, 255, 255); text-decoration-thickness: initial; text-decoration-style: initial; text-decoration-color: initial; display: inline !important; float: none;&quot;&gt;172.16.2.3&lt;/span&gt;" style="text;whiteSpace=wrap;html=1;" parent="ODUt0zolkxilLu2w94tL-1" vertex="1">
          <mxGeometry x="183.58061776301562" y="113.99904651988625" width="133.8377239199157" height="41" as="geometry" />
        </mxCell>
        <mxCell id="-SE5PjGbtScMyr2BjyUV-2" value="" style="shape=image;html=1;verticalAlign=top;verticalLabelPosition=bottom;labelBackgroundColor=#ffffff;imageAspect=0;aspect=fixed;image=https://cdn1.iconfinder.com/data/icons/computer-hardware-hand-drawn-vol-1/52/server__database__data__storage__computer__webserver__electronic-128.png" vertex="1" parent="ODUt0zolkxilLu2w94tL-1">
          <mxGeometry x="266.90874604847204" y="138" width="85" height="85" as="geometry" />
        </mxCell>
        <mxCell id="-SE5PjGbtScMyr2BjyUV-6" value="&lt;span style=&quot;font-size: 24px;&quot;&gt;Splunk&lt;/span&gt;&lt;br&gt;&lt;div&gt;&lt;font size=&quot;3&quot;&gt;172.16.2.5&lt;/font&gt;&lt;/div&gt;" style="text;html=1;align=center;verticalAlign=middle;whiteSpace=wrap;rounded=0;" vertex="1" parent="ODUt0zolkxilLu2w94tL-1">
          <mxGeometry x="359.9074499473129" y="165.5" width="71.06427818756586" height="30" as="geometry" />
        </mxCell>
        <mxCell id="ODUt0zolkxilLu2w94tL-34" style="edgeStyle=orthogonalEdgeStyle;rounded=0;orthogonalLoop=1;jettySize=auto;html=1;exitX=0.5;exitY=0.985;exitDx=0;exitDy=0;exitPerimeter=0;endArrow=none;endFill=0;" parent="ODUt0zolkxilLu2w94tL-21" source="nM8cQ9uz4SVfHFd4fCtj-2" edge="1">
          <mxGeometry relative="1" as="geometry">
            <mxPoint x="69.33322525735579" y="522.8461068960337" as="targetPoint" />
          </mxGeometry>
        </mxCell>
        <mxCell id="nM8cQ9uz4SVfHFd4fCtj-2" value="" style="shape=mxgraph.cisco.misc.access_point;sketch=0;html=1;pointerEvents=1;dashed=0;fillColor=#036897;strokeColor=#ffffff;strokeWidth=2;verticalLabelPosition=bottom;verticalAlign=top;align=center;outlineConnect=0;" parent="ODUt0zolkxilLu2w94tL-21" vertex="1">
          <mxGeometry x="2.510937829293999" y="170" width="133.8377239199157" height="55" as="geometry" />
        </mxCell>
        <mxCell id="ODUt0zolkxilLu2w94tL-51" value="&lt;font style=&quot;font-size: 24px;&quot;&gt;External PFsense&lt;/font&gt;&lt;div&gt;&lt;div&gt;&lt;span style=&quot;color: rgba(0, 0, 0, 0); font-family: monospace; font-size: 0px; text-align: start; text-wrap: nowrap; background-color: initial;&quot;&gt;%3CmxGraphModel%3E%3Croot%3E%3CmxCell%20id%3D%220%22%2F%3E%3CmxCell%20id%3D%221%22%20parent%3D%220%22%2F%3E%3CmxCell%20id%3D%222%22%20value%3D%22%22%20style%3D%22edgeStyle%3DorthogonalEdgeStyle%3Brounded%3D0%3BorthogonalLoop%3D1%3BjettySize%3Dauto%3Bhtml%3D1%3BendArrow%3Dnone%3BendFill%3D0%3Bdashed%3D1%3BdashPattern%3D1%201%3BstrokeWidth%3D2%3B%22%20edge%3D%221%22%20parent%3D%221%22%3E%3CmxGeometry%20relative%3D%221%22%20as%3D%22geometry%22%3E%3CmxPoint%20x%3D%22481%22%20y%3D%22554%22%20as%3D%22sourcePoint%22%2F%3E%3CmxPoint%20x%3D%22583%22%20y%3D%22511%22%20as%3D%22targetPoint%22%2F%3E%3C%2FmxGeometry%3E%3C%2FmxCell%3E%3C%2Froot%3E%3C%2FmxGraphModel%3E&lt;/span&gt;&lt;/div&gt;&lt;/div&gt;&lt;div&gt;&lt;font size=&quot;3&quot;&gt;172.16.2.1&lt;/font&gt;&lt;/div&gt;&lt;div&gt;&lt;font size=&quot;3&quot;&gt;&lt;br&gt;&lt;/font&gt;&lt;/div&gt;" style="text;html=1;align=center;verticalAlign=middle;whiteSpace=wrap;rounded=0;" parent="ODUt0zolkxilLu2w94tL-21" vertex="1">
          <mxGeometry x="95.9367755532139" y="237" width="145.68177028451" height="87" as="geometry" />
        </mxCell>
        <mxCell id="-SE5PjGbtScMyr2BjyUV-19" style="edgeStyle=orthogonalEdgeStyle;rounded=0;orthogonalLoop=1;jettySize=auto;html=1;exitX=0;exitY=0.5;exitDx=0;exitDy=0;entryX=1;entryY=0.5;entryDx=0;entryDy=0;entryPerimeter=0;" edge="1" parent="ODUt0zolkxilLu2w94tL-21" source="ODUt0zolkxilLu2w94tL-1" target="nM8cQ9uz4SVfHFd4fCtj-2">
          <mxGeometry relative="1" as="geometry" />
        </mxCell>
        <mxCell id="A_8-IiuSoXNgCbEyNMJ2-1" style="edgeStyle=orthogonalEdgeStyle;rounded=0;orthogonalLoop=1;jettySize=auto;html=1;" parent="1" source="miMdK3jUTvKNIo4NDDWD-1" edge="1">
          <mxGeometry relative="1" as="geometry">
            <mxPoint x="662.9147578347583" y="677.0000712076824" as="targetPoint" />
          </mxGeometry>
        </mxCell>
      </root>
    </mxGraphModel>
  </diagram>
</mxfile>
